<?xml version="1.0" encoding="UTF-8" standalone="no"?>
<svg
   xmlns:dc="http://purl.org/dc/elements/1.1/"
   xmlns:cc="http://creativecommons.org/ns#"
   xmlns:rdf="http://www.w3.org/1999/02/22-rdf-syntax-ns#"
   xmlns:svg="http://www.w3.org/2000/svg"
   xmlns="http://www.w3.org/2000/svg"
   xmlns:sodipodi="http://sodipodi.sourceforge.net/DTD/sodipodi-0.dtd"
   xmlns:inkscape="http://www.inkscape.org/namespaces/inkscape"
   width="11.531828mm"
   height="15.672822mm"
   viewBox="0 0 11.531828 15.672822"
   version="1.1"
   id="svg8"
   inkscape:version="1.0.1 (3bc2e813f5, 2020-09-07)"
   sodipodi:docname="download_data.svg">
  <defs
     id="defs2" />
  <sodipodi:namedview
     id="base"
     pagecolor="#ffffff"
     bordercolor="#666666"
     borderopacity="1.0"
     inkscape:pageopacity="0.0"
     inkscape:pageshadow="2"
     inkscape:zoom="5.6"
     inkscape:cx="31.156368"
     inkscape:cy="50.060525"
     inkscape:document-units="mm"
     inkscape:current-layer="layer1"
     inkscape:document-rotation="0"
     showgrid="false"
     fit-margin-top="0"
     fit-margin-left="0"
     fit-margin-right="0"
     fit-margin-bottom="0"
     inkscape:window-width="1309"
     inkscape:window-height="915"
     inkscape:window-x="301"
     inkscape:window-y="43"
     inkscape:window-maximized="0" />
  <metadata
     id="metadata5">
    <rdf:RDF>
      <cc:Work
         rdf:about="">
        <dc:format>image/svg+xml</dc:format>
        <dc:type
           rdf:resource="http://purl.org/dc/dcmitype/StillImage" />
        <dc:title></dc:title>
      </cc:Work>
    </rdf:RDF>
  </metadata>
  <g
     inkscape:label="Layer 1"
     inkscape:groupmode="layer"
     id="layer1"
     transform="translate(-102.29505,-51.180338)">
    <g
       id="g982"
       transform="matrix(0.26458333,0,0,0.26458333,102.29505,51.180338)"
       style="opacity:1;fill:#666666;fill-opacity:1">
      <path
         id="path986"
         style="color:#000000;font-style:normal;font-variant:normal;font-weight:normal;font-stretch:normal;font-size:medium;line-height:normal;font-family:sans-serif;font-variant-ligatures:normal;font-variant-position:normal;font-variant-caps:normal;font-variant-numeric:normal;font-variant-alternates:normal;font-variant-east-asian:normal;font-feature-settings:normal;font-variation-settings:normal;text-indent:0;text-align:start;text-decoration:none;text-decoration-line:none;text-decoration-style:solid;text-decoration-color:#000000;letter-spacing:normal;word-spacing:normal;text-transform:none;writing-mode:lr-tb;direction:ltr;text-orientation:mixed;dominant-baseline:auto;baseline-shift:baseline;text-anchor:start;white-space:normal;shape-padding:0;shape-margin:0;inline-size:0;clip-rule:nonzero;display:inline;overflow:visible;visibility:visible;isolation:auto;mix-blend-mode:normal;color-interpolation:sRGB;color-interpolation-filters:linearRGB;solid-color:#000000;solid-opacity:1;vector-effect:none;fill:#666666;fill-opacity:1;fill-rule:nonzero;stroke:none;stroke-width:1.33795;stroke-linecap:butt;stroke-linejoin:round;stroke-miterlimit:4;stroke-dasharray:none;stroke-dashoffset:0;stroke-opacity:1;paint-order:normal;color-rendering:auto;image-rendering:auto;shape-rendering:auto;text-rendering:auto;enable-background:accumulate;stop-color:#000000;stop-opacity:1"
         d="m 25.882812,23.921875 c -0.371714,-0.0027 -0.674327,0.298199 -0.673828,0.669922 v 18.537109 h -5.048828 c -0.565345,-5.29e-4 -0.87646,0.656922 -0.517578,1.09375 l 10.171875,12.429688 c 0.267676,0.326795 0.76748,0.326795 1.035156,0 L 41.023438,44.222656 c 0.358882,-0.436829 0.04777,-1.094279 -0.517579,-1.09375 H 35.457031 V 24.601562 c 4.87e-4,-0.370189 -0.299733,-0.670408 -0.669922,-0.669921 H 30.332031 27.880859 Z M 0,0 V 49.263672 H 21.074219 L 18.212891,45.767578 C 16.701382,43.91731 18.017059,41.141272 20.40625,41.138672 h 2.884766 V 24.773438 c 1.51e-4,-1.565466 1.270457,-2.83383 2.835937,-2.833985 h 8.902344 c 0.02747,3e-6 0.05279,0.007 0.08008,0.0078 V 7.171875 l -0.002,-0.00195 V 8.1757812 H 27.644531 A 0.68983276,0.68983276 0 0 1 26.958984,7.4824219 V 0 Z M 28.337891,0.40039062 V 6.796875 h 6.396484 z M 3.3867188,3.6914062 H 17.492188 V 4.9746094 H 3.3867188 Z m 0,4 H 16.267578 V 8.9746094 H 3.3867188 Z m 0,3.9999998 H 20.216797 v 1.283203 H 3.3867188 Z m 0,4 H 17.492188 v 1.283203 H 3.3867188 Z m 0,4 H 15.902344 v 1.283203 H 3.3867188 Z m 0,4 H 17.492188 v 1.283203 H 3.3867188 Z" />
    </g>
  </g>
</svg>
