<?xml version="1.0" encoding="UTF-8" standalone="no"?>
<svg
   xmlns:dc="http://purl.org/dc/elements/1.1/"
   xmlns:cc="http://creativecommons.org/ns#"
   xmlns:rdf="http://www.w3.org/1999/02/22-rdf-syntax-ns#"
   xmlns:svg="http://www.w3.org/2000/svg"
   xmlns="http://www.w3.org/2000/svg"
   xmlns:sodipodi="http://sodipodi.sourceforge.net/DTD/sodipodi-0.dtd"
   xmlns:inkscape="http://www.inkscape.org/namespaces/inkscape"
   width="210mm"
   height="297mm"
   viewBox="0 0 210 297"
   version="1.1"
   id="svg8"
   inkscape:version="1.0.2 (e86c870879, 2021-01-15)"
   sodipodi:docname="favicon.svg">
  <defs
     id="defs2">
    <inkscape:perspective
       sodipodi:type="inkscape:persp3d"
       inkscape:vp_x="0 : 526.18109 : 1"
       inkscape:vp_y="0 : 1000 : 0"
       inkscape:vp_z="744.09448 : 526.18109 : 1"
       inkscape:persp3d-origin="372.04724 : 350.78739 : 1"
       id="perspective10" />
    <inkscape:perspective
       id="perspective2464"
       inkscape:persp3d-origin="372.04724 : 350.78739 : 1"
       inkscape:vp_z="744.09448 : 526.18109 : 1"
       inkscape:vp_y="0 : 1000 : 0"
       inkscape:vp_x="0 : 526.18109 : 1"
       sodipodi:type="inkscape:persp3d" />
    <inkscape:perspective
       id="perspective2514"
       inkscape:persp3d-origin="372.04724 : 350.78739 : 1"
       inkscape:vp_z="744.09448 : 526.18109 : 1"
       inkscape:vp_y="0 : 1000 : 0"
       inkscape:vp_x="0 : 526.18109 : 1"
       sodipodi:type="inkscape:persp3d" />
    <inkscape:perspective
       id="perspective2564"
       inkscape:persp3d-origin="372.04724 : 350.78739 : 1"
       inkscape:vp_z="744.09448 : 526.18109 : 1"
       inkscape:vp_y="0 : 1000 : 0"
       inkscape:vp_x="0 : 526.18109 : 1"
       sodipodi:type="inkscape:persp3d" />
  </defs>
  <sodipodi:namedview
     id="base"
     pagecolor="#ffffff"
     bordercolor="#666666"
     borderopacity="1.0"
     inkscape:pageopacity="0.0"
     inkscape:pageshadow="2"
     inkscape:zoom="0.98994949"
     inkscape:cx="690.73852"
     inkscape:cy="438.29527"
     inkscape:document-units="mm"
     inkscape:current-layer="layer1"
     inkscape:document-rotation="0"
     showgrid="false"
     inkscape:window-width="1583"
     inkscape:window-height="915"
     inkscape:window-x="25"
     inkscape:window-y="52"
     inkscape:window-maximized="0" />
  <metadata
     id="metadata5">
    <rdf:RDF>
      <cc:Work
         rdf:about="">
        <dc:format>image/svg+xml</dc:format>
        <dc:type
           rdf:resource="http://purl.org/dc/dcmitype/StillImage" />
        <dc:title></dc:title>
      </cc:Work>
    </rdf:RDF>
  </metadata>
  <g
     inkscape:label="Layer 1"
     inkscape:groupmode="layer"
     id="layer1">
    <path
       id="rect2033"
       style="fill:#ffffff;fill-opacity:1;stroke:none;stroke-width:0.672255;stroke-linejoin:round;stroke-miterlimit:4;stroke-dasharray:none;stroke-opacity:1"
       d="M 81.810647,62.098154 H 185.58329 V 165.8708 H 81.810647 Z"
       sodipodi:nodetypes="ccccc"
       inkscape:export-xdpi="7.8325067"
       inkscape:export-ydpi="7.8325067" />
    <path
       style="fill:#005ea8;fill-opacity:1;stroke-width:0.117372"
       d="m 82.793002,154.91735 0.0015,-0.80129 c 0.005,-2.6209 1.252641,-5.43155 3.32995,-7.5019 2.288404,-2.28072 4.720948,-3.67674 12.04425,-6.91209 5.539218,-2.44716 9.037648,-4.15055 9.037648,-4.40044 0,-0.33303 -0.86393,-1.9785 -2.28191,-4.34622 -1.91415,-3.19619 -2.35429,-4.11777 -2.35429,-4.92962 0,-0.45276 0.0874,-0.82081 0.29247,-1.23241 0.45342,-0.9098 2.37901,-2.745 4.72519,-4.50336 1.14584,-0.85876 2.08335,-1.60939 2.08335,-1.66806 0,-0.082 -1.25031,-1.85175 -1.47803,-2.09212 -0.0247,-0.0261 -0.40706,0.19326 -0.8496,0.48752 -1.9911,1.324 -3.38322,1.73494 -5.07005,1.49664 -2.364514,-0.33403 -3.851959,-1.85899 -4.303569,-4.41213 -0.335077,-1.89425 0.11278,-4.38524 1.148474,-6.38778 l 0.456142,-0.88195 -0.465312,-1.0793 c -0.646532,-1.49963 -0.940748,-2.70228 -0.939364,-3.83977 0.0013,-1.13406 0.243245,-1.73383 1.156773,-2.868472 0.770266,-0.956712 0.764996,-0.875372 0.236906,-3.652916 -0.24458,-1.286417 -0.3522,-2.233359 -0.367412,-3.233067 -0.02049,-1.347179 -0.0064,-1.439558 0.29883,-1.960421 0.176189,-0.300643 0.629312,-0.78437 1.006942,-1.074953 0.80992,-0.623216 1.0706,-1.105003 1.0706,-1.978664 0,-0.993773 0.19692,-1.829037 0.64812,-2.749038 0.71282,-1.453479 2.07529,-2.617146 4.7663,-4.070835 l 1.01296,-0.547206 0.25771,-1.115261 c 0.56452,-2.442991 1.4779,-3.549203 3.90672,-4.731549 4.21305,-2.050912 7.6812,-2.322136 10.19473,-0.797273 l 0.65725,0.398723 0.8099,-0.346266 c 1.75731,-0.751313 4.04462,-1.272696 7.13095,-1.625475 3.74205,-0.427727 4.92391,-0.293286 6.25472,0.711492 0.57036,0.430618 1.93987,1.994669 2.05869,2.351109 0.031,0.09291 0.29957,0.0088 0.80469,-0.251882 0.66159,-0.341466 0.87279,-0.391878 1.65728,-0.395584 0.81506,-0.0039 0.94667,0.02908 1.40846,0.352437 0.28721,0.201114 0.67427,0.636258 0.8874,0.997663 0.20788,0.352537 0.41915,0.707996 0.46948,0.789909 0.0708,0.115209 0.2111,0.08863 0.61967,-0.117372 0.43331,-0.218479 0.71953,-0.266306 1.59364,-0.266306 1.02114,0 1.10829,0.02123 2.09513,0.51035 1.71075,0.847935 3.30635,2.541484 4.22877,4.488381 0.87581,1.8485 1.09712,3.701545 0.65062,5.447382 -0.12911,0.504813 -0.23474,0.957498 -0.23474,1.005968 0,0.04847 0.23651,0.202619 0.52558,0.342557 1.85973,0.900284 2.99182,3.924633 3.46839,9.265702 0.16027,1.796303 0.10502,2.229267 -0.54422,4.265177 -0.62397,1.95667 -0.64506,2.29301 -0.16591,2.64726 0.96247,0.71158 1.85834,1.68588 2.14789,2.33591 0.91461,2.05328 0.89545,5.48062 -0.0409,7.3289 -0.69574,1.37325 -2.25308,2.84579 -3.32794,3.14673 -0.90116,0.25231 -2.24958,0.0948 -3.98183,-0.46514 -0.8295,-0.26813 -1.57119,-0.46333 -1.64819,-0.43378 -0.31151,0.11954 -1.62831,2.30962 -1.38888,2.30999 0.0468,7e-5 1.03584,0.50606 2.19782,1.12443 3.47497,1.84927 5.08304,3.04302 5.52544,4.10181 0.24008,0.57462 0.2059,1.66555 -0.0813,2.59584 -0.13663,0.44255 -0.61827,1.59689 -1.07029,2.56521 -1.64307,3.51976 -3.25878,7.16214 -3.25878,7.34642 0,0.21423 0.69218,0.55238 5.4578,2.6663 8.8095,3.90769 12.80461,6.05242 14.87949,7.98788 1.20783,1.12667 2.39643,3.08012 2.97352,4.88695 0.47339,1.48215 0.63091,2.45062 0.71111,4.37211 l 0.0747,1.79006 H 82.84116 Z m 34.542618,-5.92583 c -0.0146,-0.20776 -0.39947,-0.84664 -1.02513,-1.7019 -0.55093,-0.7531 -1.56519,-2.21435 -2.2539,-3.24722 -0.68872,-1.03288 -1.60694,-2.40613 -2.04046,-3.05168 -0.43354,-0.64554 -1.01187,-1.54344 -1.28518,-1.99532 -0.54233,-0.89668 -1.13795,-1.58452 -1.37207,-1.58452 -0.0819,0 -0.20855,0.11145 -0.28146,0.24767 -0.11218,0.20961 -0.0436,0.42188 0.44611,1.38101 0.73882,1.44697 2.42845,4.19995 4.55209,7.41691 1.78841,2.70911 2.03484,2.95766 2.87265,2.89728 0.37229,-0.0268 0.4086,-0.0608 0.38735,-0.36223 z m 12.02969,0.0873 c 1.86905,-0.38557 3.38861,-1.0658 4.07291,-1.82323 0.60663,-0.67148 0.62173,-0.9008 0.12037,-1.82843 -0.67875,-1.25585 -0.66607,-1.24442 -1.21551,-1.09647 -0.54916,0.14788 -0.83252,0.53785 -1.11779,1.53835 -0.10239,0.3591 -0.30941,0.83446 -0.46003,1.05634 l -0.27388,0.40343 -1.24346,-0.0113 c -1.06297,-0.01 -1.32609,-0.0522 -1.8126,-0.29343 -0.76182,-0.37766 -0.78967,-0.63994 -0.1425,-1.34203 0.72133,-0.78256 1.06211,-0.93407 1.69956,-0.75559 0.43822,0.12269 0.55285,0.11559 0.80534,-0.0498 0.65318,-0.42798 1.29844,-2.26594 1.20485,-3.4319 -0.10518,-1.3102 -0.79287,-2.00821 -1.20098,-1.21899 -0.1507,0.29139 -0.17274,0.55942 -0.10979,1.3351 0.0633,0.78087 0.0413,1.04295 -0.11289,1.34111 -0.34549,0.6681 -0.78913,0.75667 -1.8911,0.37754 -1.57042,-0.54031 -2.28875,-0.1204 -2.28875,1.33789 0,1.80734 1.32861,4.16157 2.5577,4.53207 0.44499,0.13414 0.40667,0.13606 1.40855,-0.0706 z m 10.09712,-0.47947 c 1.6614,-1.14425 4.33601,-4.87708 5.07319,-7.08045 0.16413,-0.49055 0.27764,-1.19146 0.31795,-1.96325 0.0555,-1.062 0.0394,-1.20926 -0.13919,-1.2778 -0.27929,-0.10718 -0.45407,0.12008 -0.77755,1.01098 -0.66949,1.84385 -3.2409,4.92564 -4.92262,5.89967 -0.4196,0.24303 -1.21187,0.57813 -1.76058,0.74466 -1.0692,0.32451 -1.40846,0.53897 -1.40846,0.89035 0,0.37934 0.43146,1.08917 0.94284,1.55118 0.99239,0.89657 1.62206,0.94946 2.67442,0.22466 z m -14.98071,-0.46851 c 0.33153,-0.30004 0.25614,-0.76748 -0.29722,-1.84288 -0.85289,-1.65751 -1.23481,-2.09229 -2.33659,-2.65999 -2.09185,-1.07786 -3.50571,-2.40342 -5.66095,-5.30746 -0.81833,-1.10265 -1.36085,-1.73124 -1.49417,-1.73124 -0.3191,0 -0.2648,0.39989 0.26151,1.9263 1.63259,4.73467 3.63922,7.5177 6.48969,9.00068 1.78588,0.92912 2.52496,1.07864 3.03773,0.61459 z m 0.11297,-5.68403 c 0.74149,-0.47581 2.69949,-2.53355 3.46653,-3.6431 1.13869,-1.6472 1.44458,-2.46143 1.04824,-2.79036 -0.0896,-0.0744 -0.73661,-0.18583 -1.43781,-0.24774 -2.98813,-0.26381 -5.14342,-1.33588 -7.8663,-3.9128 -1.28963,-1.2205 -2.29237,-2.65218 -3.25916,-4.6533 -1.05191,-2.17732 -0.85825,-2.29639 0.96954,-0.59608 2.61144,2.42929 4.7526,4.08469 6.17812,4.77648 l 0.81829,0.39711 h 2.41748 c 2.71786,0 3.28845,-0.10205 4.11852,-0.73659 0.6741,-0.51531 1.04112,-1.23995 1.04112,-2.05561 0,-1.17242 -0.67213,-1.77782 -2.26719,-2.04214 -0.606,-0.10041 -0.96054,-0.0874 -1.79673,0.0661 -1.32152,0.24255 -1.7494,0.23742 -2.33285,-0.028 -1.33484,-0.6072 -0.81926,-1.44981 1.0065,-1.64489 0.64487,-0.0689 1.0459,-0.0239 2.29363,0.25758 1.30887,0.29523 1.57846,0.32313 2.00561,0.20755 0.66188,-0.17909 1.17469,-0.63315 1.34063,-1.18703 0.1747,-0.58306 -0.0553,-0.97615 -0.75759,-1.29502 -0.67862,-0.30812 -1.10643,-0.28313 -2.13288,0.12462 -1.01811,0.40444 -1.49596,0.43492 -2.3064,0.14708 -0.57526,-0.20432 -0.58054,-0.2039 -1.48754,0.11737 -0.50065,0.17733 -1.02118,0.32242 -1.15676,0.32242 -0.13559,0 -0.5694,-0.23768 -0.96401,-0.52818 -0.3946,-0.29049 -0.7483,-0.52817 -0.78598,-0.52817 -0.0377,0 -0.29722,0.16424 -0.57674,0.36498 -0.50489,0.36258 -0.51017,0.36355 -0.80389,0.14671 -0.33207,-0.24514 -0.31998,-0.48601 0.0628,-1.25 0.32216,-0.64302 0.6737,-0.73818 1.38862,-0.37591 0.82289,0.41699 1.17044,0.38328 1.81693,-0.17625 0.95788,-0.82904 1.44154,-0.78053 2.42478,0.2432 0.86727,0.90299 1.07165,0.90859 1.92084,0.0526 0.9536,-0.96125 1.47103,-0.99562 2.69743,-0.17914 0.38733,0.25786 0.79074,0.46901 0.89645,0.46921 0.10573,2.4e-4 0.53929,-0.16204 0.96349,-0.36054 0.42418,-0.1985 0.89045,-0.34375 1.03614,-0.32277 0.42481,0.0612 0.80114,0.73659 0.80114,1.43785 0,0.92149 0.20005,1.12379 1.11129,1.12379 h 0.74586 l 0.68529,-0.75139 c 1.16927,-1.28205 3.23914,-4.84601 3.61957,-6.23225 0.12263,-0.44686 0.22729,-1.49779 0.28639,-2.87562 0.0822,-1.91594 0.13638,-2.3222 0.46089,-3.45348 0.38588,-1.34518 0.44496,-2.08327 0.25081,-3.13267 -0.11771,-0.63618 -0.5652,-1.22161 -0.86427,-1.13067 -0.31668,0.0963 -0.66197,1.06864 -0.66197,1.86409 0,0.68735 -0.0411,0.837 -0.32277,1.17441 -0.5712,0.68429 -1.00941,1.03068 -1.83505,1.45052 -0.93651,0.47621 -1.30134,0.51004 -1.67855,0.15567 -0.33251,-0.31238 -0.3433,-0.63195 -0.0369,-1.09457 0.30962,-0.46751 0.30176,-0.50002 -0.17605,-0.72787 -0.74498,-0.35526 -0.49035,-0.66191 0.76739,-0.92415 0.46859,-0.0977 0.93658,-0.22379 1.03996,-0.28019 0.3184,-0.17368 0.9148,-0.86082 1.17389,-1.35247 0.39016,-0.7404 0.31526,-1.07601 -0.33714,-1.5104 -0.43728,-0.29116 -0.53009,-0.23903 -0.54529,0.30631 -0.0455,1.63056 -1.55072,2.72119 -2.94923,2.13685 -0.83345,-0.34823 -1.32096,-1.08126 -1.32096,-1.98617 0,-0.65702 -0.15459,-0.68408 -0.95904,-0.16786 -0.35645,0.22873 -0.5974,0.47897 -0.64542,0.6703 -0.067,0.26691 0.0217,0.39447 0.70528,1.01413 0.43005,0.38985 0.78188,0.79826 0.78185,0.90757 -7e-5,0.27827 -0.45214,0.56417 -0.89209,0.56417 -0.58042,0 -0.63086,0.17091 -0.38101,1.29109 0.12239,0.54872 0.26511,1.69401 0.31715,2.5451 0.10264,1.67856 0.0246,1.46896 0.99323,2.66738 0.11736,0.1452 0.26312,0.48537 0.32391,0.75593 0.0909,0.40445 0.0701,0.56979 -0.1167,0.92964 -0.24719,0.47612 -0.74021,1.01887 -1.23146,1.35568 -0.17147,0.11756 -0.44403,0.42327 -0.60569,0.67936 -0.42826,0.67841 -0.66835,0.75075 -1.74957,0.52715 -1.2683,-0.26229 -1.64904,-0.24233 -2.11191,0.11071 -0.60313,0.46003 -1.12695,0.25351 -1.57259,-0.62001 -0.13937,-0.27319 -0.37416,-0.57584 -0.52174,-0.67254 -0.2447,-0.16033 -0.34539,-0.14833 -1.14287,0.13612 -1.0552,0.37638 -1.33267,0.33122 -2.05487,-0.33448 -0.63845,-0.5885 -0.86148,-1.19633 -0.62266,-1.69698 0.12,-0.25155 0.25741,-0.34771 0.53546,-0.37468 0.31559,-0.0306 0.40306,0.0198 0.55971,0.32277 0.10213,0.19748 0.21548,0.35906 0.25189,0.35906 0.0364,0 0.39156,-0.29026 0.78924,-0.64502 0.42057,-0.37518 0.83353,-0.64524 0.98713,-0.64554 0.47464,-8.9e-4 0.99145,0.71286 1.14977,1.58805 0.12179,0.67327 0.2568,0.87515 0.71259,1.0656 0.82656,0.34535 1.79067,-0.20143 2.04941,-1.1623 0.1042,-0.38697 0.0807,-0.65312 -0.1343,-1.5234 -0.27498,-1.11286 -0.27374,-0.9501 -0.0358,-4.72205 0.0667,-1.05669 0.0384,-1.32001 -0.28362,-2.64087 -0.47662,-1.95508 -0.53499,-2.49757 -0.38488,-3.57683 0.18094,-1.30087 0.44611,-1.81917 1.25833,-2.45941 0.82347,-0.64913 2.47007,-1.47325 3.67914,-1.84142 1.64382,-0.50055 3.47838,-0.270558 4.86716,0.61018 0.42606,0.2702 0.62977,0.33846 0.76212,0.25536 0.27408,-0.17206 0.57804,-1.073712 0.58391,-1.732101 0.007,-0.734031 -0.27881,-1.36041 -1.38046,-3.030156 -0.80285,-1.216861 -1.19422,-2.125245 -1.19417,-2.77172 1e-5,-0.165809 0.1062,-0.952216 0.23598,-1.747573 0.26425,-1.619626 0.20555,-2.454012 -0.23694,-3.368086 -0.51474,-1.063306 -1.75287,-2.166459 -2.7777,-2.47489 -0.43516,-0.130964 -0.80478,-0.128446 -2.30299,0.01569 -2.94782,0.283589 -3.11277,0.268344 -5.34756,-0.494243 -1.71641,-0.585704 -2.06755,-0.667397 -2.89254,-0.672974 -1.12605,-0.0076 -4.39336,0.344245 -5.45456,0.5874 -2.51993,0.577402 -4.45108,2.449805 -5.26297,5.102872 -0.31617,1.033218 -0.52687,2.887968 -0.4304,3.788828 0.10168,0.949438 -0.0202,1.379849 -1.00183,3.539019 -0.44024,0.968319 -0.86389,1.998259 -0.94144,2.288754 -0.10639,0.39853 -0.11598,1.49327 -0.039,4.46013 0.14755,5.69072 0.14312,5.85539 -0.17144,6.36437 -0.14475,0.23421 -0.50377,0.56683 -0.79782,0.73915 -0.84323,0.49416 -1.01267,1.17738 -0.74721,3.01274 0.16597,1.14748 0.4004,1.56148 1.04126,1.83889 0.64157,0.27772 0.7931,0.21946 1.31333,-0.50494 0.70992,-0.98854 1.00498,-0.82575 0.95577,0.52729 -0.0532,1.46265 0.62783,4.06284 1.63113,6.22787 l 0.577,1.2451 -0.46258,1.33708 c -0.25442,0.7354 -0.65642,2.07157 -0.89331,2.96928 -0.59289,2.24669 -0.56101,2.95677 0.20472,4.55954 1.8793,3.93356 4.13101,6.62844 7.46787,8.93764 1.63742,1.13315 1.97468,1.20954 2.85271,0.6461 z m 1.17132,-29.40975 c -0.53924,-0.65418 -1.18078,-1.94212 -1.25676,-2.52303 -0.0592,-0.45238 -0.0105,-0.60168 0.43453,-1.33113 0.39816,-0.65271 0.51144,-0.96034 0.55103,-1.4965 0.0635,-0.85994 -0.11751,-0.88813 -0.94215,-0.14671 -0.47679,0.42867 -0.6708,0.52817 -1.02988,0.52817 -0.71363,0 -0.79094,-0.2332 -0.30267,-0.91286 0.22902,-0.31876 0.49457,-0.7667 0.59014,-0.99543 0.16181,-0.38724 0.15712,-0.43701 -0.0681,-0.72328 -0.133,-0.16908 -0.40262,-0.39057 -0.59914,-0.4922 -0.45826,-0.23697 -0.56843,-0.0846 -0.47981,0.6636 0.0457,0.38608 0.005,0.67204 -0.14046,0.97782 -0.26565,0.55982 -1.15543,1.34003 -1.62969,1.429 -0.59159,0.11098 -1.62927,-0.33803 -2.13154,-0.92234 -0.40444,-0.47051 -0.42083,-0.52398 -0.38429,-1.25438 0.0359,-0.71809 0.0224,-0.76515 -0.22946,-0.80088 -0.31117,-0.0442 -0.92549,0.54478 -1.03867,0.99573 -0.16037,0.63894 0.5994,1.80048 1.17769,1.80048 0.2816,0 0.22544,0.32462 -0.11506,0.66514 -0.26,0.25998 -0.37615,0.29404 -0.82892,0.243 -0.67014,-0.0755 -1.01991,-0.39665 -1.50055,-1.37763 l -0.3738,-0.76292 -0.58398,0.0352 c -0.54021,0.0326 -0.62229,-1.1e-4 -1.09504,-0.43657 l -0.51106,-0.47181 0.0596,-0.85452 c 0.0842,-1.20759 0.44845,-2.07195 1.22771,-2.91365 1.48774,-1.60694 4.48789,-2.373165 7.11361,-1.8168 1.14164,0.2419 2.80956,1.22192 4.12365,2.42293 0.73042,0.66755 0.82364,0.83932 1.05526,1.94422 0.14312,0.68279 0.13037,0.8367 -0.19933,2.40786 l -0.35222,1.67844 0.25267,1.52583 c 0.28163,1.70076 0.30052,2.27309 0.0948,2.87419 -0.19086,0.5577 -0.45233,0.56977 -0.88818,0.041 z m -5.0098,-7.10801 c 0.26383,-0.37668 0.23715,-0.99283 -0.0496,-1.14632 -0.33676,-0.18022 -0.82313,-0.0189 -0.95014,0.31516 -0.29922,0.78702 0.54126,1.48576 0.99977,0.83116 z m -4.0527,-1.67578 c 0.52784,-0.50347 0.7584,-0.64554 1.04763,-0.64554 0.34558,0 0.37085,0.028 0.37085,0.4108 0,0.22594 0.0132,0.41017 0.0293,0.40941 0.0162,-8.5e-4 0.31984,-0.0794 0.67489,-0.17467 0.35505,-0.0953 0.90108,-0.1739 1.21338,-0.17466 l 0.56783,-10e-4 -0.0793,-0.46949 -0.0793,-0.46948 h 0.42735 c 0.26244,0 0.59398,0.11323 0.85917,0.29343 0.55367,0.37622 0.61207,0.36955 0.61207,-0.0699 0,-0.76668 -0.82551,-1.52373 -2.16042,-1.98124 -0.78556,-0.26924 -1.25127,-0.29226 -2.24881,-0.11117 -1.16362,0.21123 -2.08593,0.9024 -2.61572,1.96019 -0.36725,0.73326 -0.39356,1.02016 -0.12491,1.3617 0.37792,0.48044 0.73107,0.40118 1.50599,-0.33796 z m 20.56956,37.81631 c 1.40732,-0.69844 3.43498,-2.0286 3.99064,-2.6179 1.26454,-1.34111 2.82365,-3.88843 3.32715,-5.436 0.27014,-0.83029 0.25088,-1.51468 -0.11254,-3.99924 -0.39943,-2.73074 -0.52017,-3.2883 -0.72952,-3.36863 -0.25239,-0.0969 -0.43958,0.14888 -0.82895,1.0882 -0.5057,1.21993 -1.12062,2.09243 -2.31384,3.28301 -1.97827,1.97389 -5.71184,4.12906 -8.01193,4.62482 -1.7973,0.38738 -2.08375,0.4953 -2.12719,0.80137 -0.039,0.27487 1.44502,3.25325 2.08307,4.18062 0.40657,0.59093 1.11735,1.25021 1.86814,1.7328 0.77185,0.49611 1.4013,0.43239 2.85497,-0.28905 z m -4.50192,-24.52462 c 0.29669,-0.24604 0.5117,-0.90233 0.42674,-1.30255 -0.093,-0.43788 -0.33968,-0.74061 -0.79581,-0.97649 l -0.33328,-0.17235 0.0808,0.75415 c 0.0624,0.58305 0.0382,0.83659 -0.10714,1.11751 -0.10335,0.19986 -0.1879,0.47823 -0.1879,0.61861 0,0.22379 0.0456,0.24612 0.37027,0.18119 0.20365,-0.0407 0.44951,-0.13976 0.54636,-0.22007 z m -28.54079,-4.0889 c 0.43988,-0.21806 0.80421,-0.57505 1.59691,-1.56475 0.58285,-0.72772 1.027,-1.39258 1.027,-1.53738 0,-0.18717 -0.1208,-0.30259 -0.45351,-0.43328 l -0.45351,-0.17815 -0.50227,0.58309 c -0.89189,1.03543 -1.67346,1.29702 -2.28448,0.7646 -0.22441,-0.19554 -0.33201,-0.44462 -0.41457,-0.95966 -0.13055,-0.81453 -0.21021,-0.92048 -0.65324,-0.86878 -0.28327,0.0331 -0.36215,0.13003 -0.55657,0.68407 -0.12458,0.35505 -0.25294,0.99171 -0.28524,1.41479 -0.0587,0.76955 0.10478,1.29595 0.58309,1.87701 0.5443,0.66122 1.35423,0.73505 2.39639,0.21844 z m 49.54041,-4.12395 c 0.40489,-0.13243 0.94763,-0.42475 1.21743,-0.65567 0.4868,-0.41669 0.48681,-0.41673 0.42502,-1.09821 -0.0427,-0.47058 -0.18639,-0.90896 -0.46434,-1.41637 -0.59333,-1.08314 -0.91312,-1.05915 -1.86804,0.14018 -1.20028,1.50748 -3.09909,1.5554 -4.53991,0.11458 -0.6565,-0.6565 -0.89318,-1.20392 -0.8846,-2.04598 0.0132,-1.29877 0.85463,-2.47609 2.05901,-2.88103 0.83889,-0.28206 0.95862,-0.58586 0.52349,-1.32835 -0.61916,-1.056523 -1.89342,-1.620436 -2.65335,-1.174211 -0.70317,0.412907 -1.58664,2.023031 -1.89246,3.448981 -0.2976,1.3877 0.93762,4.16753 2.46011,5.53638 0.72113,0.64836 1.99285,1.32939 2.90873,1.55768 0.81508,0.20317 1.6745,0.14036 2.70891,-0.19798 z m -16.49467,-3.55544 c 0.10082,-0.22129 0.0877,-0.34316 -0.0614,-0.57071 -0.28338,-0.4325 -0.6632,-0.51144 -0.92212,-0.19168 -0.29087,0.35921 -0.26683,0.66267 0.08,1.00946 0.24289,0.24289 0.33367,0.27068 0.53399,0.16348 0.13274,-0.071 0.29903,-0.25579 0.36955,-0.41055 z m 2.9969,-1.84628 c 0.0515,-0.45682 0.0145,-0.56954 -0.3074,-0.93615 -0.42134,-0.47986 -0.927,-0.74495 -1.88465,-0.98798 -0.6027,-0.15296 -0.76516,-0.15144 -1.47768,0.0138 -0.89296,0.20709 -1.11022,0.3378 -1.11022,0.66796 0,0.16337 -0.20486,0.3172 -0.74548,0.55975 -0.73277,0.32878 -0.89773,0.50519 -0.89773,0.96009 0,0.36693 0.23599,0.36481 1.26675,-0.0114 1.11603,-0.4073 1.49555,-0.43175 2.37983,-0.15328 0.86649,0.27287 0.87659,0.27009 0.83349,-0.2301 -0.033,-0.38307 -0.005,-0.44015 0.21279,-0.44015 0.14806,0 0.50008,0.25519 0.85993,0.6234 0.33509,0.34286 0.65483,0.58513 0.71054,0.53838 0.0557,-0.0468 0.12764,-0.31872 0.15983,-0.60437 z m 8.61872,-8.861481 c 0.0291,-0.70224 -0.0102,-0.97613 -0.26575,-1.84861 -0.41698,-1.423949 -1.01053,-2.512107 -1.80201,-3.303621 -0.67573,-0.67576 -0.79531,-0.743987 -1.8888,-1.077664 -1.24595,-0.380206 -1.37336,-0.407792 -1.78358,-0.38619 -0.19166,0.01009 -0.26409,0.08648 -0.26409,0.278493 0,0.18312 0.26912,0.497518 0.87404,1.021105 1.061,0.91832 1.49104,1.476346 2.29363,2.976201 0.98284,1.836669 1.84847,2.778819 2.55422,2.779992 0.22375,3.52e-4 0.26687,-0.06677 0.28234,-0.439706 z m -39.90558,-5.335958 c 0.66567,-0.374132 0.9288,-0.875626 1.05285,-2.006623 0.13104,-1.19471 0.46917,-1.893834 1.14568,-2.368882 0.46837,-0.328894 0.56885,-0.351741 1.46073,-0.332126 0.52677,0.01158 1.08636,0.038 1.24353,0.05869 0.24904,0.03279 0.30184,-0.02703 0.4108,-0.465402 0.16671,-0.670649 1.43898,-2.244642 2.37369,-2.936607 1.30631,-0.967061 2.05471,-1.125479 3.7003,-0.783262 1.41538,0.294341 1.97998,0.5197 3.09722,1.236253 1.28905,0.826739 1.55203,0.908647 1.93132,0.601524 0.42719,-0.345922 0.1931,-0.685193 -0.93373,-1.353257 -1.09248,-0.647695 -1.41692,-0.949118 -1.41692,-1.316385 0,-0.882078 1.65079,-0.813416 3.57284,0.148607 0.93991,0.470439 2.29577,1.397854 2.29577,1.570317 0,0.27165 0.838,1.84986 1.01915,1.919373 0.13266,0.05091 0.31691,-0.04148 0.55247,-0.277055 0.30504,-0.305037 0.3601,-0.458055 0.40209,-1.117451 0.0964,-1.513706 -0.1762,-1.988847 -1.72437,-3.005795 -1.32851,-0.872661 -1.70827,-0.956303 -3.13419,-0.690311 -0.64047,0.119472 -1.38051,0.219573 -1.64454,0.222446 -0.83186,0.0091 -2.26885,-0.430674 -3.03447,-0.928558 -2.13211,-1.38651 -3.20334,-1.483284 -5.28838,-0.477747 -1.16139,0.560087 -1.89468,1.163075 -1.77949,1.463259 0.0744,0.193781 0.19914,0.204236 1.52487,0.127772 l 1.44388,-0.08328 0.37369,0.314439 c 0.46263,0.389282 0.46575,0.532661 0.0225,1.03743 -0.58316,0.664195 -1.5577,1.262513 -2.31312,1.420156 -1.82542,0.380929 -5.77629,3.519119 -7.19616,5.715939 -0.81126,1.255188 -0.89711,2.037516 -0.26143,2.382432 0.43406,0.235523 0.56533,0.226495 1.10336,-0.07589 z m 32.29866,-2.767505 c 0.93814,-0.633152 1.49331,-0.869141 2.19415,-0.932691 0.82375,-0.0747 1.72723,0.200151 2.29413,0.6979 0.28275,0.248259 0.41342,0.30444 0.44752,0.192411 0.0265,-0.08703 0.0782,-0.251238 0.11492,-0.364915 0.3156,-0.977148 -1.49174,-2.601763 -3.17525,-2.854218 -0.66922,-0.100356 -2.22748,0.118173 -3.54551,0.497218 -0.9263,0.266392 -0.99682,0.271355 -1.20307,0.0847 -0.47352,-0.428537 -0.14819,-1.921515 0.68628,-3.149322 0.64364,-0.947043 2.17861,-2.603606 2.50993,-2.708764 0.3379,-0.107247 0.28086,-0.505588 -0.0856,-0.597558 -0.64164,-0.161043 -3.27323,0.994161 -4.08193,1.791869 -0.52683,0.519687 -0.95725,1.382166 -1.15119,2.306798 -0.18063,0.861153 0.0726,1.53686 0.85849,2.290932 0.49915,0.478921 0.58959,0.640074 0.70249,1.251566 0.1693,0.917193 0.36722,1.279466 0.90123,1.649662 0.38321,0.265667 0.5358,0.299294 1.20333,0.265187 0.63098,-0.03224 0.86321,-0.105711 1.33006,-0.420779 z"
       id="path2570"
       sodipodi:nodetypes="ccssssscssscscscscsssssssscssscsssssssssssssssssssssssssssssssssscccsssssssscsssssssscsssssssscsssssssssssssssssssscsscssssssscssssssssscssssssssssssssscsssscsssssssssssssssscssssscssssssscssssssssssssssssscssssscsscsssssssssscssssssscscssccsscsssssssscssssssssscsccsssssscssssssssssscsccccssssssssssssssssscsssssscssssssssscsscsssssssssssssssssssssssssscsssssssssssssscsssssssssssssssssssssssscssssssscscsssssssssssssssssssssss"
       inkscape:export-xdpi="7.8325067"
       inkscape:export-ydpi="7.8325067" />
    <path
       id="path1914"
       style="fill:#00a43c;fill-opacity:1;stroke:#000000;stroke-width:1.25313;stroke-linejoin:round;stroke-opacity:1"
       inkscape:transform-center-x="-4.7147462e-06"
       inkscape:transform-center-y="7.9726152e-06"
       d="m -82.597077,-198.12226 -32.455053,24.22823 -40.49766,0.52444 -33.07157,-23.37966 -13.01323,-38.35351 12.0157,-38.67763 32.45505,-24.22823 40.49766,-0.52443 33.071562,23.37965 13.01324,38.35351 z" />
    <path
       id="path945"
       style="fill:#00a43c;fill-opacity:1;stroke:#000000;stroke-width:0.865;stroke-linejoin:round;stroke-opacity:1"
       inkscape:transform-center-x="-1.7147462e-06"
       inkscape:transform-center-y="2.9726151e-06"
       d="m -99.171092,-209.83911 -22.402698,16.72398 -27.95426,0.362 -22.82826,-16.13824 -8.98263,-26.47422 8.29406,-26.69795 22.4027,-16.72398 27.95426,-0.362 22.828257,16.13824 8.982629,26.47422 z" />
    <g
       id="g1944">
      <path
         id="path936"
         style="fill:#00a43c;fill-opacity:1;stroke:#000000;stroke-width:0.188424px;stroke-linecap:butt;stroke-linejoin:miter;stroke-opacity:1"
         d="m -127.58607,-296.41653 c -2.86617,7.08328 8.28167,5.16506 -4.54287,28.51042 l 9.51031,3.08854 c 3.8784,-26.25069 11.60922,-18.19835 13.66275,-25.54868 1.28724,-4.60753 -3.28607,-5.84632 -7.882,-7.27985 -4.59592,-1.43351 -8.83912,-3.07925 -10.74819,1.22957 z"
         sodipodi:nodetypes="cccszc" />
      <path
         id="path1916"
         style="fill:#00a43c;fill-opacity:1;stroke:#000000;stroke-width:0.188424px;stroke-linecap:butt;stroke-linejoin:miter;stroke-opacity:1"
         d="m -93.801154,-279.67987 c -6.446156,4.10303 3.744005,9.01367 -20.251916,20.57526 l 5.94997,8.03635 c 18.398918,-19.12122 20.018074,-8.07657 25.95763,-12.86885 3.723193,-3.00403 0.7189,-6.6679 -2.190743,-10.50346 -2.909655,-3.83554 -5.408893,-7.63909 -9.464941,-5.2393 z"
         sodipodi:nodetypes="cccszc" />
      <path
         id="path1918"
         style="fill:#00a43c;fill-opacity:1;stroke:#000000;stroke-width:0.188424px;stroke-linecap:butt;stroke-linejoin:miter;stroke-opacity:1"
         d="m -76.39175,-246.6634 c -7.624993,-0.49722 -2.303606,9.48459 -28.49502,4.6385 l 0.0537,9.99911 c 26.140937,-4.55986 20.923105,5.30828 28.546491,4.95011 4.778698,-0.22452 4.518921,-4.9555 4.436942,-9.76912 -0.082,-4.81359 0.14825,-9.35894 -4.542083,-9.8186 z"
         sodipodi:nodetypes="cccszc" />
      <path
         id="path1920"
         style="fill:#00a43c;fill-opacity:1;stroke:#000000;stroke-width:0.188424px;stroke-linecap:butt;stroke-linejoin:miter;stroke-opacity:1"
         d="m -144.80147,-175.81154 c 2.86617,-7.08328 -8.28167,-5.16506 4.54287,-28.51042 l -9.51031,-3.08854 c -3.8784,26.25069 -11.60922,18.19835 -13.66275,25.54868 -1.28724,4.60753 3.28607,5.84632 7.882,7.27985 4.59592,1.43351 8.83912,3.07925 10.74819,-1.22957 z"
         sodipodi:nodetypes="cccszc" />
      <path
         id="path1922"
         style="fill:#00a43c;fill-opacity:1;stroke:#000000;stroke-width:0.188424px;stroke-linecap:butt;stroke-linejoin:miter;stroke-opacity:1"
         d="m -195.84905,-225.46277 c 7.62499,0.49722 2.30361,-9.48459 28.49502,-4.6385 l -0.0537,-9.99911 c -26.14094,4.55986 -20.9231,-5.30828 -28.54649,-4.95011 -4.7787,0.22452 -4.51892,4.9555 -4.43694,9.76912 0.082,4.81359 -0.14825,9.35894 4.54208,9.8186 z"
         sodipodi:nodetypes="cccszc" />
      <path
         id="path1924"
         style="fill:#00a43c;fill-opacity:1;stroke:#000000;stroke-width:0.188424px;stroke-linecap:butt;stroke-linejoin:miter;stroke-opacity:1"
         d="m -81.654539,-209.00853 c -5.844893,-4.9219 -7.479125,6.27109 -25.695111,-13.16219 l -5.8861,8.08325 c 23.752945,11.82957 13.699808,16.68142 20.050643,20.91358 3.981005,2.65291 6.577236,-1.31057 9.365638,-5.23518 2.788365,-3.92458 5.669097,-7.44801 2.164955,-10.59945 z"
         sodipodi:nodetypes="cccszc" />
      <path
         id="path1926"
         style="fill:#00a43c;fill-opacity:1;stroke:#000000;stroke-width:0.188424px;stroke-linecap:butt;stroke-linejoin:miter;stroke-opacity:1"
         d="m -107.74331,-182.40187 c -1.868,-7.40934 -9.73374,0.71985 -13.16366,-25.69435 l -9.49962,3.12127 c 12.36601,23.47813 1.37245,21.54231 4.05403,28.68747 1.68095,4.47892 6.10364,2.77908 10.65957,1.22306 4.55588,-1.55602 8.95237,-2.73251 7.94969,-7.33743 z"
         sodipodi:nodetypes="cccszc" />
      <path
         id="path1928"
         style="fill:#00a43c;fill-opacity:1;stroke:#000000;stroke-width:0.188424px;stroke-linecap:butt;stroke-linejoin:miter;stroke-opacity:1"
         d="m -164.76221,-289.60923 c 1.868,7.40934 9.73374,-0.71985 13.16366,25.69435 l 9.49962,-3.12127 c -12.36601,-23.47813 -1.37245,-21.54231 -4.05403,-28.68747 -1.68095,-4.47892 -6.10364,-2.77908 -10.65957,-1.22306 -4.55588,1.55602 -8.95237,2.73251 -7.94969,7.33743 z"
         sodipodi:nodetypes="cccszc" />
      <path
         id="path1930"
         style="fill:#00a43c;fill-opacity:1;stroke:#000000;stroke-width:0.188424px;stroke-linecap:butt;stroke-linejoin:miter;stroke-opacity:1"
         d="m -190.75279,-262.72499 c 5.84489,4.9219 7.47912,-6.27109 25.69511,13.16219 l 5.8861,-8.08325 c -23.75294,-11.82957 -13.69981,-16.68142 -20.05064,-20.91358 -3.98101,-2.65291 -6.57724,1.31057 -9.36564,5.23518 -2.78837,3.92458 -5.6691,7.44801 -2.16496,10.59945 z"
         sodipodi:nodetypes="cccszc" />
      <path
         id="path1932"
         style="fill:#00a43c;fill-opacity:1;stroke:#000000;stroke-width:0.188424px;stroke-linecap:butt;stroke-linejoin:miter;stroke-opacity:1"
         d="m -178.0998,-192.40849 c 6.44616,-4.10303 -3.744,-9.01367 20.25192,-20.57526 l -5.94997,-8.03635 c -18.39892,19.12122 -20.01807,8.07657 -25.95763,12.86885 -3.72319,3.00403 -0.7189,6.6679 2.19074,10.50346 2.90966,3.83554 5.4089,7.63909 9.46494,5.2393 z"
         sodipodi:nodetypes="cccszc" />
    </g>
    <g
       id="g1980"
       transform="translate(10.896066,-176.00898)"
       style="stroke:none;stroke-opacity:1">
      <circle
         style="fill:#00a43c;fill-opacity:1;stroke:none;stroke-width:0.575377;stroke-linejoin:round;stroke-opacity:1"
         id="path934"
         cx="59.385468"
         cy="-123.45859"
         r="40.089882" />
      <g
         id="g1966"
         transform="translate(195.50587,112.65545)"
         style="stroke:none;stroke-opacity:1">
        <path
           id="path1946"
           style="fill:#00a43c;fill-opacity:1;stroke:none;stroke-width:0.188424px;stroke-linecap:butt;stroke-linejoin:miter;stroke-opacity:1"
           d="m -127.58607,-296.41653 c -2.86617,7.08328 8.28167,5.16506 -4.54287,28.51042 l 9.51031,3.08854 c 3.8784,-26.25069 11.60922,-18.19835 13.66275,-25.54868 1.28724,-4.60753 -3.28607,-5.84632 -7.882,-7.27985 -4.59592,-1.43351 -8.83912,-3.07925 -10.74819,1.22957 z"
           sodipodi:nodetypes="cccszc" />
        <path
           id="path1948"
           style="fill:#00a43c;fill-opacity:1;stroke:none;stroke-width:0.188424px;stroke-linecap:butt;stroke-linejoin:miter;stroke-opacity:1"
           d="m -93.801154,-279.67987 c -6.446156,4.10303 3.744005,9.01367 -20.251916,20.57526 l 5.94997,8.03635 c 18.398918,-19.12122 20.018074,-8.07657 25.95763,-12.86885 3.723193,-3.00403 0.7189,-6.6679 -2.190743,-10.50346 -2.909655,-3.83554 -5.408893,-7.63909 -9.464941,-5.2393 z"
           sodipodi:nodetypes="cccszc" />
        <path
           id="path1950"
           style="fill:#00a43c;fill-opacity:1;stroke:none;stroke-width:0.188424px;stroke-linecap:butt;stroke-linejoin:miter;stroke-opacity:1"
           d="m -76.39175,-246.6634 c -7.624993,-0.49722 -2.303606,9.48459 -28.49502,4.6385 l 0.0537,9.99911 c 26.140937,-4.55986 20.923105,5.30828 28.546491,4.95011 4.778698,-0.22452 4.518921,-4.9555 4.436942,-9.76912 -0.082,-4.81359 0.14825,-9.35894 -4.542083,-9.8186 z"
           sodipodi:nodetypes="cccszc" />
        <path
           id="path1952"
           style="fill:#00a43c;fill-opacity:1;stroke:none;stroke-width:0.188424px;stroke-linecap:butt;stroke-linejoin:miter;stroke-opacity:1"
           d="m -144.80147,-175.81154 c 2.86617,-7.08328 -8.28167,-5.16506 4.54287,-28.51042 l -9.51031,-3.08854 c -3.8784,26.25069 -11.60922,18.19835 -13.66275,25.54868 -1.28724,4.60753 3.28607,5.84632 7.882,7.27985 4.59592,1.43351 8.83912,3.07925 10.74819,-1.22957 z"
           sodipodi:nodetypes="cccszc" />
        <path
           id="path1954"
           style="fill:#00a43c;fill-opacity:1;stroke:none;stroke-width:0.188424px;stroke-linecap:butt;stroke-linejoin:miter;stroke-opacity:1"
           d="m -195.84905,-225.46277 c 7.62499,0.49722 2.30361,-9.48459 28.49502,-4.6385 l -0.0537,-9.99911 c -26.14094,4.55986 -20.9231,-5.30828 -28.54649,-4.95011 -4.7787,0.22452 -4.51892,4.9555 -4.43694,9.76912 0.082,4.81359 -0.14825,9.35894 4.54208,9.8186 z"
           sodipodi:nodetypes="cccszc" />
        <path
           id="path1956"
           style="fill:#00a43c;fill-opacity:1;stroke:none;stroke-width:0.188424px;stroke-linecap:butt;stroke-linejoin:miter;stroke-opacity:1"
           d="m -81.654539,-209.00853 c -5.844893,-4.9219 -7.479125,6.27109 -25.695111,-13.16219 l -5.8861,8.08325 c 23.752945,11.82957 13.699808,16.68142 20.050643,20.91358 3.981005,2.65291 6.577236,-1.31057 9.365638,-5.23518 2.788365,-3.92458 5.669097,-7.44801 2.164955,-10.59945 z"
           sodipodi:nodetypes="cccszc" />
        <path
           id="path1958"
           style="fill:#00a43c;fill-opacity:1;stroke:none;stroke-width:0.188424px;stroke-linecap:butt;stroke-linejoin:miter;stroke-opacity:1"
           d="m -107.74331,-182.40187 c -1.868,-7.40934 -9.73374,0.71985 -13.16366,-25.69435 l -9.49962,3.12127 c 12.36601,23.47813 1.37245,21.54231 4.05403,28.68747 1.68095,4.47892 6.10364,2.77908 10.65957,1.22306 4.55588,-1.55602 8.95237,-2.73251 7.94969,-7.33743 z"
           sodipodi:nodetypes="cccszc" />
        <path
           id="path1960"
           style="fill:#00a43c;fill-opacity:1;stroke:none;stroke-width:0.188424px;stroke-linecap:butt;stroke-linejoin:miter;stroke-opacity:1"
           d="m -164.76221,-289.60923 c 1.868,7.40934 9.73374,-0.71985 13.16366,25.69435 l 9.49962,-3.12127 c -12.36601,-23.47813 -1.37245,-21.54231 -4.05403,-28.68747 -1.68095,-4.47892 -6.10364,-2.77908 -10.65957,-1.22306 -4.55588,1.55602 -8.95237,2.73251 -7.94969,7.33743 z"
           sodipodi:nodetypes="cccszc" />
        <path
           id="path1962"
           style="fill:#00a43c;fill-opacity:1;stroke:none;stroke-width:0.188424px;stroke-linecap:butt;stroke-linejoin:miter;stroke-opacity:1"
           d="m -190.75279,-262.72499 c 5.84489,4.9219 7.47912,-6.27109 25.69511,13.16219 l 5.8861,-8.08325 c -23.75294,-11.82957 -13.69981,-16.68142 -20.05064,-20.91358 -3.98101,-2.65291 -6.57724,1.31057 -9.36564,5.23518 -2.78837,3.92458 -5.6691,7.44801 -2.16496,10.59945 z"
           sodipodi:nodetypes="cccszc" />
        <path
           id="path1964"
           style="fill:#00a43c;fill-opacity:1;stroke:none;stroke-width:0.188424px;stroke-linecap:butt;stroke-linejoin:miter;stroke-opacity:1"
           d="m -178.0998,-192.40849 c 6.44616,-4.10303 -3.744,-9.01367 20.25192,-20.57526 l -5.94997,-8.03635 c -18.39892,19.12122 -20.01807,8.07657 -25.95763,12.86885 -3.72319,3.00403 -0.7189,6.6679 2.19074,10.50346 2.90966,3.83554 5.4089,7.63909 9.46494,5.2393 z"
           sodipodi:nodetypes="cccszc" />
      </g>
    </g>
    <path
       id="circle1982"
       style="fill:#00a43c;fill-opacity:1;stroke:#ffffff;stroke-width:1.87699;stroke-linejoin:round;stroke-miterlimit:4;stroke-dasharray:none;stroke-opacity:1"
       d="m 162.71871,111.65243 c -0.70282,0.0156 -1.2791,0.30692 -1.6455,1.13389 -1.02877,2.54245 2.35145,2.25325 -0.33642,8.58274 a 16.414502,16.414502 0 0 0 -3.15791,-0.30681 16.414502,16.414502 0 0 0 -3.97506,0.48879 c -2.45411,-6.203 0.82165,-5.93765 -0.13287,-8.48099 -0.68825,-1.83386 -2.49897,-1.13791 -4.36436,-0.50082 -1.86538,0.63711 -3.66558,1.11886 -3.25503,3.0043 0.66741,2.64726 3.20483,0.45114 4.77357,7.03458 a 16.414502,16.414502 0 0 0 -5.61208,4.30766 c -5.64186,-3.60899 -2.81865,-5.30972 -5.08187,-6.81791 -1.62999,-1.08622 -2.69308,0.53645 -3.83476,2.14335 -1.14167,1.6069 -2.32128,3.0495 -0.88654,4.33983 2.09185,1.76152 2.86669,-1.51778 8.00977,2.94252 a 16.414502,16.414502 0 0 0 -2.0126,6.77116 c -6.67352,0.43642 -5.41122,-2.60442 -8.12678,-2.47682 -1.9566,0.092 -1.85024,2.0289 -1.81668,3.9998 0.0336,1.97089 -0.0606,3.83191 1.85984,4.02013 2.72435,0.17764 1.41314,-2.91145 8.16063,-2.38288 a 16.414502,16.414502 0 0 0 2.3467,6.67553 c -5.11975,4.28435 -5.89786,1.08925 -8.01253,2.79545 -1.52444,1.22998 -0.29421,2.73025 0.89713,4.30068 1.19134,1.57044 2.21467,3.12763 3.8754,2.14506 2.30027,-1.46414 -0.57211,-3.1798 5.1557,-6.73011 a 16.414502,16.414502 0 0 0 5.77902,4.01187 c -1.68117,6.59518 -4.19386,4.4048 -4.92909,7.03648 -0.52705,1.88653 1.34554,2.39387 3.22731,2.98081 1.88177,0.58694 3.61912,1.26064 4.40076,-0.50357 1.02936,-2.54389 -2.35543,-2.25289 0.34086,-8.59354 a 16.414502,16.414502 0 0 0 3.21356,0.3176 16.414502,16.414502 0 0 0 3.84429,-0.45661 c 2.49696,6.26186 -0.80235,5.98655 0.15511,8.53768 0.68825,1.83386 2.49896,1.13792 4.36436,0.50083 1.86537,-0.63711 3.66557,-1.11886 3.25502,-3.0043 -0.6686,-2.65198 -3.21396,-0.44262 -4.78203,-7.06928 a 16.414502,16.414502 0 0 0 5.59347,-4.20251 c 5.73294,3.63889 2.87685,5.34705 5.14913,6.86128 1.63,1.08622 2.69308,-0.53665 3.83478,-2.14356 1.14168,-1.6069 2.32129,-3.0495 0.88655,-4.33983 h -2.2e-4 c -2.09603,-1.76504 -2.86965,1.5312 -8.04046,-2.96896 a 16.414502,16.414502 0 0 0 2.10866,-6.90509 c 6.67706,-0.43759 5.41375,2.60421 8.12975,2.47661 1.9566,-0.092 1.85023,-2.0289 1.81667,-3.9998 -0.0336,-1.9709 0.0608,-3.83192 -1.85963,-4.02013 -2.72364,-0.17761 -1.41407,2.90969 -8.15577,2.38308 a 16.414502,16.414502 0 0 0 -2.28131,-6.60294 c 5.18219,-4.37155 5.9569,-1.13893 8.08108,-2.85281 1.52443,-1.22997 0.29441,-2.73023 -0.89691,-4.30068 -1.19134,-1.57043 -2.21468,-3.12763 -3.87539,-2.14505 -2.30772,1.46888 0.59185,3.19065 -5.21051,6.76439 a 16.414502,16.414502 0 0 0 -5.91762,-4.1255 c 1.68116,-6.56769 4.18878,-4.38579 4.92318,-7.01447 0.52704,-1.88653 -1.34534,-2.39365 -3.22711,-2.98061 -0.99968,-0.3118 -1.95873,-0.64824 -2.75526,-0.63052 z"
       inkscape:export-xdpi="7.8325067"
       inkscape:export-ydpi="7.8325067" />
    <path
       style="fill:none;stroke:#f22d0d;stroke-width:5.072;stroke-linecap:butt;stroke-linejoin:miter;stroke-miterlimit:4;stroke-dasharray:none;stroke-opacity:1"
       d="m 83.159966,157.18109 27.545934,-15.92619 3.14331,4.93521 17.75571,-9.91404 2.72562,4.72093 7.82938,-4.85752 6.98297,11.49988 19.52369,-11.27201 2.6053,4.51251 4.60049,-2.6561 3.08301,5.2502"
       id="path2031"
       sodipodi:nodetypes="ccccccccccc"
       inkscape:export-xdpi="7.8325067"
       inkscape:export-ydpi="7.8325067" />
  </g>
</svg>
