<?xml version="1.0" encoding="UTF-8" standalone="no"?>
<svg
   width="5.0297289mm"
   height="8.0579205mm"
   viewBox="0 0 5.029729 8.0579203"
   version="1.1"
   id="svg1679"
   sodipodi:docname="lock_closeddate.svg"
   inkscape:version="1.1.1 (3bf5ae0d25, 2021-09-20)"
   xmlns:inkscape="http://www.inkscape.org/namespaces/inkscape"
   xmlns:sodipodi="http://sodipodi.sourceforge.net/DTD/sodipodi-0.dtd"
   xmlns="http://www.w3.org/2000/svg"
   xmlns:svg="http://www.w3.org/2000/svg"
   xmlns:rdf="http://www.w3.org/1999/02/22-rdf-syntax-ns#"
   xmlns:cc="http://creativecommons.org/ns#"
   xmlns:dc="http://purl.org/dc/elements/1.1/">
  <defs
     id="defs1673" />
  <sodipodi:namedview
     id="base"
     pagecolor="#ffffff"
     bordercolor="#666666"
     borderopacity="1.0"
     inkscape:pageopacity="0.50980392"
     inkscape:pageshadow="2"
     inkscape:zoom="15.839192"
     inkscape:cx="9.3123438"
     inkscape:cy="26.137697"
     inkscape:document-units="mm"
     inkscape:current-layer="g4712"
     inkscape:document-rotation="0"
     showgrid="false"
     inkscape:pagecheckerboard="true"
     inkscape:window-width="1313"
     inkscape:window-height="991"
     inkscape:window-x="662"
     inkscape:window-y="137"
     inkscape:window-maximized="0" />
  <metadata
     id="metadata1676">
    <rdf:RDF>
      <cc:Work
         rdf:about="">
        <dc:format>image/svg+xml</dc:format>
        <dc:type
           rdf:resource="http://purl.org/dc/dcmitype/StillImage" />
      </cc:Work>
    </rdf:RDF>
  </metadata>
  <g
     inkscape:label="Ebene 1"
     inkscape:groupmode="layer"
     id="layer1"
     transform="translate(16.859681,-83.9652)">
    <g
       transform="matrix(3.4191458,0,0,4.1573699,-11.416333,325.39572)"
       id="layer1-2">
      <g
         id="g4723"
         transform="matrix(1,0,0.02892831,1,53.98645,-32.415425)">
        <g
           id="g4712"
           transform="matrix(0.05787655,0,-0.00199807,0.06907001,-62.505208,-29.097327)"
           style="fill:#ffffff;fill-opacity:1">
          <g
             id="g4708"
             transform="matrix(1.2345145,0,-1.2731303e-7,0.85076238,79.719038,13.192391)">
            <path
               style="fill:#ffffff;fill-opacity:1;stroke:none;stroke-width:7.46735;stroke-miterlimit:4;stroke-dasharray:none;stroke-opacity:1"
               d="m 167.30664,226.87305 v 60.10156 h 77.36914 v -60.10156 z m 38.68359,11.25781 a 8.7469463,8.7469463 0 0 1 8.74805,8.74805 8.7469463,8.7469463 0 0 1 -4.4414,7.59961 v 18.2207 h -8.61329 v -18.21484 a 8.7469463,8.7469463 0 0 1 -4.43945,-7.60547 8.7469463,8.7469463 0 0 1 8.74609,-8.74805 z"
               transform="scale(0.26458333)"
               id="rect815"
               inkscape:connector-curvature="0" />
            <path
               style="fill:none;fill-opacity:1;stroke:#fdfdfd;stroke-width:2.60101;stroke-miterlimit:4;stroke-dasharray:none;stroke-opacity:1"
               d="m 47.026119,67.432079 v -9.074964 c 0,-4.134864 3.35197,-7.486833 7.486833,-7.486833 4.134864,0 7.486834,3.351969 7.486834,7.486833 v 9.074964"
               id="path817"
               inkscape:connector-curvature="0"
               sodipodi:nodetypes="csssc" />
          </g>
        </g>
      </g>
    </g>
  </g>
</svg>
