<?xml version="1.0" encoding="UTF-8" standalone="no"?>
<svg
   xmlns:dc="http://purl.org/dc/elements/1.1/"
   xmlns:cc="http://creativecommons.org/ns#"
   xmlns:rdf="http://www.w3.org/1999/02/22-rdf-syntax-ns#"
   xmlns:svg="http://www.w3.org/2000/svg"
   xmlns="http://www.w3.org/2000/svg"
   xmlns:sodipodi="http://sodipodi.sourceforge.net/DTD/sodipodi-0.dtd"
   xmlns:inkscape="http://www.inkscape.org/namespaces/inkscape"
   width="8.2500124mm"
   height="8.088171mm"
   viewBox="0 0 8.2500128 8.0881708"
   version="1.1"
   id="svg1679"
   sodipodi:docname="lock_opendate.svg"
   inkscape:version="1.0.1 (3bc2e813f5, 2020-09-07)">
  <defs
     id="defs1673" />
  <sodipodi:namedview
     id="base"
     pagecolor="#ffffff"
     bordercolor="#666666"
     borderopacity="1.0"
     inkscape:pageopacity="0.50980392"
     inkscape:pageshadow="2"
     inkscape:zoom="7.9195959"
     inkscape:cx="-3.6924237"
     inkscape:cy="16.710785"
     inkscape:document-units="mm"
     inkscape:current-layer="g4712"
     inkscape:document-rotation="0"
     showgrid="false"
     inkscape:pagecheckerboard="true"
     inkscape:window-width="1920"
     inkscape:window-height="1001"
     inkscape:window-x="-9"
     inkscape:window-y="-9"
     inkscape:window-maximized="1" />
  <metadata
     id="metadata1676">
    <rdf:RDF>
      <cc:Work
         rdf:about="">
        <dc:format>image/svg+xml</dc:format>
        <dc:type
           rdf:resource="http://purl.org/dc/dcmitype/StillImage" />
        <dc:title />
      </cc:Work>
    </rdf:RDF>
  </metadata>
  <g
     inkscape:label="Ebene 1"
     inkscape:groupmode="layer"
     id="layer1"
     transform="translate(19.709391,-83.910306)">
    <g
       transform="matrix(3.4191458,0,0,4.1573699,-11.416333,325.39572)"
       id="layer1-2">
      <g
         id="g4723"
         transform="matrix(1,0,0.02892831,1,53.98645,-32.415425)">
        <g
           id="g842"
           transform="matrix(1.1389722,0,0.00203575,1.0686004,7.7790461,1.7640762)">
          <g
             id="g4712"
             transform="matrix(0.05787655,0,-0.00199807,0.06907001,-62.505208,-29.097327)"
             style="fill:#ffffff">
            <path
               style="fill:none;fill-opacity:1;stroke:#ffffff;stroke-width:2.73304;stroke-miterlimit:4;stroke-dasharray:none;stroke-opacity:1"
               d="M 137.93529,67.432178 V 58.39336 c 0,-4.118397 -3.71572,-7.457014 -8.29933,-7.457014 -4.58358,0 -8.29932,3.338617 -8.29932,7.457014 v 4.822392"
               id="path4660"
               inkscape:connector-curvature="0"
               sodipodi:nodetypes="csssc" />
            <path
               id="path4704"
               d="m 134.2249,60.026827 v 15.901871 h 22.3486 V 60.026827 Z m 11.174,2.978629 a 2.5266134,2.3142962 4.4650669e-6 0 1 2.52698,2.314588 2.5266134,2.3142962 4.4650669e-6 0 1 -1.28292,2.01073 v 4.820894 h -2.48802 v -4.819343 a 2.5266134,2.3142962 4.4650669e-6 0 1 -1.28244,-2.012281 2.5266134,2.3142962 4.4650669e-6 0 1 2.5264,-2.314588 z"
               style="fill:#ffffff;fill-opacity:1;stroke:none;stroke-width:2.06438;stroke-miterlimit:4;stroke-dasharray:none;stroke-opacity:1"
               inkscape:connector-curvature="0" />
          </g>
        </g>
      </g>
    </g>
  </g>
</svg>
