<?xml version="1.0" encoding="UTF-8" standalone="no"?>
<svg
   xmlns:dc="http://purl.org/dc/elements/1.1/"
   xmlns:cc="http://creativecommons.org/ns#"
   xmlns:rdf="http://www.w3.org/1999/02/22-rdf-syntax-ns#"
   xmlns:svg="http://www.w3.org/2000/svg"
   xmlns="http://www.w3.org/2000/svg"
   xmlns:sodipodi="http://sodipodi.sourceforge.net/DTD/sodipodi-0.dtd"
   xmlns:inkscape="http://www.inkscape.org/namespaces/inkscape"
   width="5.0297289mm"
   height="8.0579205mm"
   viewBox="0 0 5.029729 8.0579203"
   version="1.1"
   id="svg1679"
   sodipodi:docname="lock_closeddate.svg"
   inkscape:version="1.0.1 (3bc2e813f5, 2020-09-07)">
  <defs
     id="defs1673" />
  <sodipodi:namedview
     id="base"
     pagecolor="#ffffff"
     bordercolor="#666666"
     borderopacity="1.0"
     inkscape:pageopacity="0.50980392"
     inkscape:pageshadow="2"
     inkscape:zoom="7.9195959"
     inkscape:cx="12.748002"
     inkscape:cy="15.366889"
     inkscape:document-units="mm"
     inkscape:current-layer="g4712"
     inkscape:document-rotation="0"
     showgrid="false"
     inkscape:pagecheckerboard="true"
     inkscape:window-width="1313"
     inkscape:window-height="991"
     inkscape:window-x="544"
     inkscape:window-y="164"
     inkscape:window-maximized="0" />
  <metadata
     id="metadata1676">
    <rdf:RDF>
      <cc:Work
         rdf:about="">
        <dc:format>image/svg+xml</dc:format>
        <dc:type
           rdf:resource="http://purl.org/dc/dcmitype/StillImage" />
        <dc:title />
      </cc:Work>
    </rdf:RDF>
  </metadata>
  <g
     inkscape:label="Ebene 1"
     inkscape:groupmode="layer"
     id="layer1"
     transform="translate(16.859681,-83.9652)">
    <g
       transform="matrix(3.4191458,0,0,4.1573699,-11.416333,325.39572)"
       id="layer1-2">
      <g
         id="g4723"
         transform="matrix(1,0,0.02892831,1,53.98645,-32.415425)">
        <g
           id="g4712"
           transform="matrix(0.05787655,0,-0.00199807,0.06907001,-62.505208,-29.097327)"
           style="fill:#ffffff;fill-opacity:1">
          <path
             style="fill:none;fill-opacity:1;stroke:#ffffff;stroke-width:3.01749;stroke-miterlimit:4;stroke-dasharray:none;stroke-opacity:1"
             d="m 156.27872,68.899625 v -9.637512 c 1e-5,-4.391186 -4.24752,-7.95095 -9.48701,-7.95095 -5.23956,0 -9.48703,3.559764 -9.48703,7.95095 v 5.141819"
             id="path4660"
             inkscape:connector-curvature="0"
             sodipodi:nodetypes="csssc" />
          <path
             id="path4704"
             d="M 134.2249,60.884373 V 77.86417 h 25.417 V 60.884373 Z m 12.70817,3.18054 a 2.8735135,2.4711741 3.9643151e-6 0 1 2.8739,2.471487 2.8735135,2.4711741 3.9643151e-6 0 1 -1.45912,2.147021 v 5.147691 h -2.82953 v -5.146031 a 2.8735135,2.4711741 3.9643151e-6 0 1 -1.45845,-2.148681 2.8735135,2.4711741 3.9643151e-6 0 1 2.8732,-2.471487 z"
             style="fill:#ffffff;fill-opacity:1;stroke:none;stroke-width:2.27493;stroke-miterlimit:4;stroke-dasharray:none;stroke-opacity:1"
             inkscape:connector-curvature="0" />
        </g>
      </g>
    </g>
  </g>
</svg>
